# xmcd
#
# Track frame offsets: 
#        150
#        11464
#        20201
#        31252
#        43696
#        54593
#        64211
#        75253
#        85943
#        97935
#        110924
#        122991
#        134620
#        143957
#        157724
#        169985
#        179649
#        192837
#        204033
#        216475
#        227048
#        236099
#        246682
#        256489
#        265119
#
# Disc length: 3679 seconds
#
# Revision: 0
# Processed by: cddbd v1.5.1PL0 Copyright (c) Steve Scherf et al.
# Submitted via: ExactAudioCopy v0.95a5
#
DISCID=6c0e5d19
DTITLE=Sonny James - Young Love - The Complete Recordings 1952-1962 (C
DTITLE=D 3)
DYEAR=1900
DGENRE=Country
TTITLE0=Young Love
TTITLE1=You're The Reason I'm In Love
TTITLE2=First Date, First Kiss, First Love
TTITLE3=Speak To Me
TTITLE4=Actions Speak Louder Than Words
TTITLE5=Baby You Melt My Heart
TTITLE6=Dear Love
TTITLE7=Lovesick Blues
TTITLE8=Almost
TTITLE9=Secret Love
TTITLE10=Heartaches
TTITLE11=How's The World Treating You
TTITLE12=Beg Your Pardon
TTITLE13=Because Of You
TTITLE14=A Fool Such As I
TTITLE15=Near You
TTITLE16=Ages And Ages Ago
TTITLE17=Just Out Of Reach (Of My Two Open Arms)
TTITLE18=I'll Never Get Over You
TTITLE19=I Forgot More Than You'll Ever Know
TTITLE20=A Mighty Lovable Man
TTITLE21=(Love Came, Love Saw) Love Conquered
TTITLE22=Uh-Huh-Mm
TTITLE23=Climb Up The Ladder Of Love
TTITLE24=Why Can't They Remember
EXTD=
EXTT0=
EXTT1=
EXTT2=
EXTT3=
EXTT4=
EXTT5=
EXTT6=
EXTT7=
EXTT8=
EXTT9=
EXTT10=
EXTT11=
EXTT12=
EXTT13=
EXTT14=
EXTT15=
EXTT16=
EXTT17=
EXTT18=
EXTT19=
EXTT20=
EXTT21=
EXTT22=
EXTT23=
EXTT24=
PLAYORDER=
